<svg xmlns="http://www.w3.org/2000/svg" width="213" height="32" version="1.1" viewBox="0 0 213 32"><title>mgicc-dark</title><path fill="#212121" d="M195.812 16.688h-12.2c0.384-2.495 1.944-4.312 4.278-4.926 0.963-0.282 2.138-0.328 3.159-0.124l0.367 0.094c2.338 0.601 3.981 2.472 4.397 4.957zM192.494 8.302l-0.113-0.019c-1.909-0.495-3.894-0.486-5.592 0.021-3.035 0.849-5.36 3.077-6.378 6.114-1.127 3.353-0.512 7.165 1.614 9.958 1.694 2.128 4.575 3.398 7.698 3.398 0.066 0.001 0.134 0.001 0.2 0.001 2.648 0 4.974-0.813 6.584-2.319 0.929-0.953 0.752-2.007 0.192-2.583-0.621-0.642-1.803-0.813-2.666-0.021-1.487 1.142-3.218 1.382-4.408 1.382-2.826 0-5.136-1.704-5.837-4.222h13.42c0.812 0 1.433-0.227 1.843-0.679 0.362-0.396 0.533-0.956 0.48-1.578-0.098-4.74-2.724-8.271-7.037-9.454z"/><path fill="#212121" d="M211.303 8.139c-2.037 0-3.63 0.594-4.76 1.771-0.015-0.672-0.316-1.081-0.572-1.308-0.96-0.851-3.108-0.411-3.108 1.361v15.845c0 1.057 0.797 1.822 1.895 1.822 1.043 0 1.859-0.801 1.859-1.822v-8.083c0-1.797 0.457-5.976 4.687-5.976 1.172 0 1.929-0.701 1.929-1.787 0-1.108-0.757-1.823-1.929-1.823z"/><path fill="#212121" d="M24.679 5.57c-3.265 0-6.051 1.486-7.547 3.95-1.341-2.465-4.030-3.95-7.296-3.95-2.533 0-4.661 0.882-6.154 2.518v-0.695c0-1.057-0.766-1.823-1.823-1.823-1.025 0-1.859 0.818-1.859 1.823v15.988c0 1.163 0.973 1.791 1.887 1.791 0.928 0 1.867-0.615 1.867-1.791v-8.048c0-3.83 3.111-6.118 6.117-6.118 1.046 0 1.981 0.249 2.771 0.736 1.379 0.869 2.201 2.574 2.201 4.56v8.87c0 1.090 0.762 1.822 1.895 1.822s1.895-0.732 1.895-1.822v-7.87c0-3.669 2.587-6.332 6.153-6.332 2.77 0 4.906 2.032 4.973 4.73v9.471c0 1.108 0.729 1.822 1.859 1.822 1.133 0 1.895-0.732 1.895-1.822v-9.586c0-5.343-4.551-8.225-8.834-8.225z"/><path fill="#212121" d="M81.74 7.393v16.096c0 0.99 0.811 1.738 1.887 1.738 0.928 0 1.865-0.596 1.865-1.738v-16.131c0-2.241-3.753-2.228-3.753 0.035z"/><path fill="#212121" d="M85.493 2.177c0 1.036-0.84 1.877-1.877 1.877-1.036 0-1.876-0.841-1.876-1.877s0.84-1.877 1.876-1.877c1.037 0 1.877 0.841 1.877 1.877z"/><path fill="#212121" d="M101.248 27.989c-7.716 0-13.994-6.277-13.994-13.994s6.277-13.995 13.994-13.995c3.737 0 7.252 1.455 9.895 4.1 0.781 0.78 0.781 2.046 0 2.827-0.78 0.78-2.046 0.78-2.827 0-1.888-1.889-4.398-2.929-7.068-2.929-5.512 0-9.995 4.485-9.995 9.997s4.484 9.995 9.995 9.995c2.67 0 5.179-1.040 7.068-2.927 0.782-0.781 2.049-0.781 2.827 0 0.781 0.78 0.781 2.046 0 2.826-2.643 2.643-6.158 4.099-9.895 4.099z"/><path fill="#212121" d="M124.547 27.989c-7.716 0-13.994-6.277-13.994-13.994s6.277-13.995 13.994-13.995c3.738 0 7.254 1.455 9.895 4.1 0.781 0.78 0.781 2.047 0 2.827-0.78 0.78-2.048 0.78-2.827 0-1.887-1.889-4.397-2.929-7.068-2.929-5.512 0-9.995 4.485-9.995 9.997s4.484 9.995 9.995 9.995c2.671 0 5.18-1.040 7.068-2.927 0.781-0.781 2.047-0.781 2.827 0 0.781 0.78 0.781 2.046 0 2.826-2.642 2.643-6.157 4.099-9.895 4.099z"/><path fill="#212121" d="M145.787 11.902c-3.364 0-6.091 2.727-6.091 6.091 0 3.363 2.727 6.091 6.091 6.091 3.363 0 6.091-2.728 6.091-6.091 0-3.364-2.728-6.091-6.091-6.091zM155.833 17.993c0 5.547-4.499 10.046-10.046 10.046s-10.046-4.499-10.046-10.046c0-5.547 4.499-10.046 10.046-10.046s10.046 4.499 10.046 10.046z"/><path fill="#212121" d="M167.373 23.664c-3.234 0-5.857-2.622-5.857-5.856s2.623-5.856 5.857-5.856c3.234 0 5.856 2.622 5.856 5.856s-2.622 5.856-5.856 5.856zM177.031 4.261c0-0.931-0.761-1.692-1.691-1.692h-0.451c-0.93 0-1.692 0.761-1.692 1.692v5.857c-1.62-1.23-3.634-1.967-5.824-1.967-5.334 0-9.657 4.324-9.657 9.657s4.324 9.657 9.657 9.657c5.334 0 9.657-4.324 9.657-9.657 0-0.147-0.016-0.291-0.022-0.438 0.009-0.072 0.022-0.143 0.022-0.217z"/><path fill="#212121" d="M46.362 21.239c-3.234 0-5.856-2.623-5.856-5.857s2.622-5.856 5.856-5.856c3.177 0 5.748 2.533 5.84 5.688-0.005 0.049-0.015 0.097-0.015 0.147v0.339c-0.169 3.083-2.699 5.538-5.825 5.538zM56.019 15.343c-0.022-5.314-4.335-9.617-9.656-9.617-5.334 0-9.657 4.324-9.657 9.657s4.324 9.657 9.657 9.657c2.191 0 4.204-0.737 5.825-1.967v0.647c0 0.93 0.761 1.691 1.691 1.691h0.451c0.93 0 1.692-0.761 1.692-1.691v-8.357c0-0.006-0.002-0.013-0.002-0.019z"/><path fill="#212121" d="M73.789 16.077v0.339c-0.169 3.082-2.699 5.538-5.825 5.538-3.234 0-5.856-2.623-5.856-5.857s2.622-5.856 5.856-5.856c3.177 0 5.748 2.531 5.84 5.687-0.005 0.049-0.015 0.097-0.015 0.148zM77.62 16.056c-0.022-5.314-4.335-9.617-9.656-9.617-5.334 0-9.657 4.325-9.657 9.658s4.324 9.657 9.657 9.657c2.191 0 4.204-0.738 5.825-1.966 0 1.446-0.501 2.639-1.734 3.484-1.11 0.764-2.509 1.046-3.839 1.046-1.917 0-3.066-0.407-4.68-1.627-0.87-0.843-2.065-0.653-2.716 0.016-0.601 0.617-0.805 1.713 0.174 2.669 1.921 1.814 4.149 2.623 7.223 2.623 3.809 0 7.671-1.707 8.947-5.536 0.689-2.065 0.496-4.099 0.459-6.479-0.018-1.303 0-2.605-0.001-3.928z"/></svg>