<svg xmlns="http://www.w3.org/2000/svg" xmlns:svg="http://www.w3.org/2000/svg" id="svg2" width="248.885" height="37.35" version="1.1" viewBox="0 0 248.885 37.35" xml:space="preserve"><metadata id="metadata8"/><defs id="defs6"><clipPath id="clipPath18" clipPathUnits="userSpaceOnUse"><path id="path16" d="M 0,28.013 H 186.664 V 0 H 0 Z"/></clipPath></defs><g id="g10" transform="matrix(1.3333333,0,0,-1.3333333,0,37.350267)"><g id="g12"><g id="g14" clip-path="url(#clipPath18)"><g id="g20" transform="translate(171.4128,13.4041)"><path id="path22" fill="#1754f8" fill-opacity="1" fill-rule="nonzero" stroke="none" d="m 0,0 h -10.68 c 0.336,2.184 1.702,3.775 3.745,4.312 0.843,0.247 1.872,0.287 2.765,0.109 L -3.849,4.339 C -1.802,3.813 -0.364,2.175 0,0 M -2.904,7.341 -3.003,7.358 C -4.674,7.791 -6.412,7.783 -7.898,7.34 -10.555,6.597 -12.59,4.646 -13.481,1.988 c -0.987,-2.935 -0.448,-6.272 1.413,-8.717 1.483,-1.863 4.005,-2.975 6.739,-2.975 0.058,-10e-4 0.117,-10e-4 0.175,-10e-4 2.318,0 4.354,0.712 5.764,2.03 0.813,0.834 0.658,1.757 0.168,2.261 -0.544,0.562 -1.578,0.712 -2.334,0.018 -1.302,-1 -2.817,-1.21 -3.859,-1.21 -2.474,0 -4.496,1.492 -5.11,3.696 H 1.223 c 0.711,0 1.254,0.199 1.613,0.594 0.317,0.347 0.467,0.837 0.42,1.381 -0.086,4.149 -2.385,7.24 -6.16,8.276"/></g><g id="g24" transform="translate(184.9743,20.8875)"><path id="path26" fill="#1754f8" fill-opacity="1" fill-rule="nonzero" stroke="none" d="m 0,0 c -1.783,0 -3.178,-0.52 -4.167,-1.55 -0.013,0.588 -0.277,0.946 -0.501,1.145 -0.84,0.745 -2.721,0.36 -2.721,-1.191 v -13.871 c 0,-0.925 0.698,-1.595 1.659,-1.595 0.913,0 1.627,0.701 1.627,1.595 v 7.076 c 0,1.573 0.4,5.231 4.103,5.231 1.026,0 1.689,0.614 1.689,1.564 C 1.689,-0.626 1.026,0 0,0"/></g><g id="g28" transform="translate(21.6042,23.1365)"><path id="path30" fill="#fe6c19" fill-opacity="1" fill-rule="nonzero" stroke="none" d="M 0,0 C -2.858,0 -5.297,-1.301 -6.607,-3.458 -7.781,-1.3 -10.135,0 -12.994,0 c -2.217,0 -4.08,-0.772 -5.387,-2.204 v 0.608 c 0,0.925 -0.671,1.596 -1.596,1.596 -0.897,0 -1.627,-0.716 -1.627,-1.596 v -13.996 c 0,-1.018 0.852,-1.568 1.652,-1.568 0.812,0 1.634,0.538 1.634,1.568 v 7.045 c 0,3.353 2.723,5.356 5.355,5.356 0.916,0 1.734,-0.218 2.426,-0.644 1.207,-0.761 1.927,-2.253 1.927,-3.992 v -7.765 c 0,-0.954 0.667,-1.595 1.659,-1.595 0.992,0 1.659,0.641 1.659,1.595 v 6.889 c 0,3.212 2.265,5.543 5.386,5.543 2.425,0 4.295,-1.779 4.353,-4.141 v -8.291 c 0,-0.97 0.638,-1.595 1.627,-1.595 0.992,0 1.659,0.641 1.659,1.595 V -7.2 C 7.733,-2.523 3.749,0 0,0"/></g><g id="g32" transform="translate(71.5553,21.5408)"><path id="path34" fill="#fe6c19" fill-opacity="1" fill-rule="nonzero" stroke="none" d="m 0,0 v -14.09 c 0,-0.867 0.71,-1.521 1.652,-1.521 0.812,0 1.633,0.522 1.633,1.521 V 0.031 C 3.285,1.993 0,1.981 0,0"/></g><g id="g36" transform="translate(74.8405,26.1072)"><path id="path38" fill="#fe6c19" fill-opacity="1" fill-rule="nonzero" stroke="none" d="m 0,0 c 0,-0.907 -0.735,-1.643 -1.643,-1.643 -0.907,0 -1.642,0.736 -1.642,1.643 0,0.907 0.735,1.643 1.642,1.643 C -0.735,1.643 0,0.907 0,0"/></g><g id="g40" transform="translate(88.6325,3.5115)"><path id="path42" fill="#fe6c19" fill-opacity="1" fill-rule="nonzero" stroke="none" d="m 0,0 c -6.755,0 -12.25,5.495 -12.25,12.25 0,6.755 5.495,12.251 12.25,12.251 3.271,0 6.348,-1.274 8.662,-3.589 0.684,-0.683 0.684,-1.791 0,-2.475 -0.683,-0.683 -1.791,-0.683 -2.475,0 -1.653,1.654 -3.85,2.564 -6.187,2.564 -4.825,0 -8.75,-3.926 -8.75,-8.751 0,-4.825 3.925,-8.75 8.75,-8.75 2.337,0 4.534,0.91 6.187,2.562 0.685,0.684 1.794,0.684 2.475,0 0.684,-0.683 0.684,-1.791 0,-2.474 C 6.348,1.274 3.271,0 0,0"/></g><g id="g44" transform="translate(109.028,3.5115)"><path id="path46" fill="#1754f8" fill-opacity="1" fill-rule="nonzero" stroke="none" d="m 0,0 c -6.755,0 -12.25,5.495 -12.25,12.25 0,6.755 5.495,12.251 12.25,12.251 3.272,0 6.35,-1.274 8.662,-3.589 0.684,-0.683 0.684,-1.792 0,-2.475 -0.683,-0.683 -1.793,-0.683 -2.475,0 -1.652,1.654 -3.849,2.564 -6.187,2.564 -4.825,0 -8.75,-3.926 -8.75,-8.751 0,-4.825 3.925,-8.75 8.75,-8.75 2.338,0 4.535,0.91 6.187,2.562 0.684,0.684 1.792,0.684 2.475,0 0.684,-0.683 0.684,-1.791 0,-2.474 C 6.349,1.274 3.272,0 0,0"/></g><g id="g48" transform="translate(127.6217,17.5936)"><path id="path50" fill="#1754f8" fill-opacity="1" fill-rule="nonzero" stroke="none" d="m 0,0 c -2.945,0 -5.332,-2.387 -5.332,-5.332 0,-2.944 2.387,-5.332 5.332,-5.332 2.944,0 5.332,2.388 5.332,5.332 C 5.332,-2.387 2.944,0 0,0 m 8.794,-5.332 c 0,-4.856 -3.938,-8.794 -8.794,-8.794 -4.856,0 -8.794,3.938 -8.794,8.794 0,4.856 3.938,8.794 8.794,8.794 4.856,0 8.794,-3.938 8.794,-8.794"/></g><g id="g52" transform="translate(146.5182,7.2977)"><path id="path54" fill="#1754f8" fill-opacity="1" fill-rule="nonzero" stroke="none" d="m 0,0 c -2.831,0 -5.127,2.295 -5.127,5.126 0,2.831 2.296,5.126 5.127,5.126 2.831,0 5.126,-2.295 5.126,-5.126 C 5.126,2.295 2.831,0 0,0 m 8.454,16.985 c 0,0.815 -0.666,1.481 -1.48,1.481 H 6.579 C 5.765,18.466 5.098,17.8 5.098,16.985 V 11.858 C 3.68,12.935 1.917,13.58 0,13.58 c -4.669,0 -8.454,-3.785 -8.454,-8.454 0,-4.669 3.785,-8.454 8.454,-8.454 4.669,0 8.454,3.785 8.454,8.454 0,0.129 -0.014,0.255 -0.019,0.383 0.008,0.063 0.019,0.125 0.019,0.19 z"/></g><g id="g56" transform="translate(40.5856,9.4197)"><path id="path58" fill="#fe6c19" fill-opacity="1" fill-rule="nonzero" stroke="none" d="m 0,0 c -2.831,0 -5.126,2.296 -5.126,5.127 0,2.831 2.295,5.126 5.126,5.126 2.781,0 5.032,-2.217 5.112,-4.979 C 5.108,5.231 5.099,5.189 5.099,5.145 V 4.848 C 4.951,2.149 2.736,0 0,0 M 8.453,5.162 C 8.434,9.814 4.658,13.581 0,13.581 c -4.669,0 -8.454,-3.785 -8.454,-8.454 0,-4.669 3.785,-8.454 8.454,-8.454 1.918,0 3.68,0.645 5.099,1.722 v -0.566 c 0,-0.814 0.666,-1.48 1.48,-1.48 h 0.395 c 0.814,0 1.481,0.666 1.481,1.48 v 7.316 c 0,0.005 -0.002,0.011 -0.002,0.017"/></g><g id="g60" transform="translate(64.5944,13.9393)"><path id="path62" fill="#fe6c19" fill-opacity="1" fill-rule="nonzero" stroke="none" d="m 0,0 v -0.297 c -0.148,-2.698 -2.363,-4.848 -5.099,-4.848 -2.831,0 -5.126,2.296 -5.126,5.127 0,2.831 2.295,5.126 5.126,5.126 2.781,0 5.032,-2.216 5.112,-4.978 C 0.009,0.087 0,0.045 0,0 m 3.354,0.018 c -0.019,4.652 -3.795,8.419 -8.453,8.419 -4.669,0 -8.454,-3.786 -8.454,-8.455 0,-4.669 3.785,-8.454 8.454,-8.454 1.918,0 3.68,0.646 5.099,1.721 0,-1.266 -0.439,-2.31 -1.518,-3.05 -0.972,-0.669 -2.196,-0.916 -3.361,-0.916 -1.678,0 -2.684,0.356 -4.097,1.424 -0.762,0.738 -1.808,0.572 -2.378,-0.014 -0.526,-0.54 -0.705,-1.5 0.152,-2.336 1.682,-1.588 3.632,-2.296 6.323,-2.296 3.334,0 6.715,1.494 7.832,4.846 0.603,1.808 0.434,3.588 0.402,5.672 -0.016,1.141 0,2.28 -10e-4,3.439"/></g></g></g></g></svg>